<?xml version="1.0" encoding="UTF-8"?>
<svg id="Layer_2" data-name="Layer 2" xmlns="http://www.w3.org/2000/svg" viewBox="0 0 189.14 150.73">
  <defs>
    <style>
      .cls-1 {
        fill: #fefeff;
      }

      .cls-2 {
        fill: #15c4fd;
      }
    </style>
  </defs>
  <g id="Layer_1-2" data-name="Layer 1">
    <g>
      <path class="cls-2" d="m140.12,123.31c-4.37-.04-8.68,1.03-12.49,3.1-12.81,6.97-44.35,22.92-44.35,22.92-.86.42-1.74.8-2.62,1.17-.26.11-.55.13-.97.22,1.37-1.81,2.69-3.43,3.88-5.13,1.79-2.56,3.14-5.38,3.76-8.38.83-3.99.67-8.02-.7-11.95-.58-1.68-.49-1.68-2.37-1.68-5.21.01-10.41,0-15.62,0-18.55.02-37.1.03-55.65.06-2.99,0-5.71-.66-8.17-2.35-2.96-2.04-4.68-4.84-4.73-8.28-.14-9.65-.08-19.29-.08-28.94C.02,60.25.04,36.42,0,12.59c0-2.55.36-4.96,1.75-7.16C3.54,2.56,6.16.61,9.6.35,14.34,0,19.11.02,23.87.02,47.19-.01,70.51,0,93.83,0c27,0,53.99,0,80.99.02,1.86,0,3.79-.03,5.57.42,2.68.68,4.92,2.18,6.55,4.42,1.38,1.89,2.04,4.18,2.04,6.49.04,25.26.1,50.52.14,75.78.01,7.63.02,15.27-.02,22.9,0,1.61.05,3.29-.37,4.82-1.19,4.25-3.92,7.14-8.3,8.33-.92.25-2.46.41-3.41.43l-36.91-.31Zm-31.55-94.4s-.01,0-.02,0c0-.47-.05-.94.01-1.4.12-.91-.3-1.39-1.06-1.83-3.28-1.9-6.57-3.81-9.79-5.82-5-3.12-10.49-4.46-16.32-4.59-3.23-.07-6.42.34-9.49,1.29-2.13.65-4.2,1.52-6.21,2.48-1.62.77-3.08,1.87-4.65,2.75-2.52,1.41-5.06,2.77-7.61,4.13-.47.25-.68.53-.64,1.09.11,1.42.21,2.84.2,4.26-.04,5.16-.13,10.32-.18,15.48,0,.39.06.79.16,1.17.67,2.48,2.3,4.22,4.38,5.61,3.55,2.38,7.62,3.67,11.53,5.25,2.48,1,5.19,1.46,7.83,2.04,1.27.28,2.59.49,3.85-.33,1.65-1.06,3.36-2.02,5.05-3,2.97-1.72,5.98-3.38,9.57-3.31.92.02,1.6-.29,2.22-.95,2.9-3.08,6.52-4.84,10.63-5.62.74-.14,1.02-.5,1.02-1.18-.02-1.31-.04-2.61-.08-3.92-.13-4.54-.27-9.07-.41-13.6Zm-58.4,16.48c-.55,1.12-1.07,1.95-1.37,2.85-1.54,4.7-3.2,9.37-3.98,14.27-.36,2.26-.6,4.54-.84,6.82-.09.85.15,1.63.94,2.1,2.1,1.27,4.21,2.51,6.31,3.77.91.55,1.85,1.07,2.72,1.67,1.15.78,2.16,1.83,3.39,2.41,3.99,1.9,8.23,2.99,12.58,3.74,5.42.93,10.88,1.36,16.37.82,4.56-.44,8.85-1.64,12.45-4.71,2.68-2.29,4.65-4.94,5.35-8.5.35-1.8,1.11-3.55,2.51-4.82,1.39-1.25,1.31-2.66.59-4.06-2.05-4.04-5.63-5.89-9.95-6.3-4.18-.4-7.7,1.29-10.81,4-1.21,1.05-2.52,2.09-3.94,2.8-4.26,2.14-8.61,4.12-12.92,6.16-2.61,1.24-5.22,2.48-7.84,3.71-.58.27-1.17.51-1.75.76-.07-.13-.13-.25-.2-.38,3.45-2.25,6.9-4.5,10.23-6.67-.7-.83-1.5-1.71-2.24-2.64-1.34-1.69-2.51-3.52-4.64-4.41-2.99-1.24-5.94-2.56-8.45-4.7-2.44-2.09-3.81-4.69-4.14-7.87-.02-.23-.19-.44-.37-.83Zm84.09,17.58c.1,1.67.15,3.21.29,4.75.22,2.47.75,4.84,2,7.03.46.81.95,1.77.94,2.65-.04,3.47-1.19,6.71-2.58,9.85-.57,1.28-.41,2.02.59,2.98,1.08,1.03,2.47,1.03,3.73,1.06,3.09.08,6.21.27,9.27-.51,1.47-.38,2.68-1.28,2.65-2.39-.07-2.28.67-4.4,1.12-6.58.5-2.45.52-4.94-.63-7.19-1.19-2.34-2.69-4.53-4.06-6.78-1.42-2.33-2.9-4.63-3.5-7.36-.15-.67-.38-1.33-.61-2.08-1.46.75-2.86.8-4.25-.05-.56-.34-.83-.07-1.02.58-.56,1.97-1.15,3.97-3.94,4.05Zm-34.58-8.48c.67.2,1.22.41,1.79.54,2.54.58,4.55,1.96,6.06,4.06,1.52,2.12,1.87,4.4.93,6.86-.55,1.44-1.15,2.88-1.52,4.37-.66,2.65-1.46,5.2-3.07,7.45-.27.38-.33.92-.49,1.39.47,0,.94.09,1.4.02,5.03-.85,10.06-1.65,15.06-2.64,2.18-.43,4.32-1.16,6.38-2.01,1.75-.72,1.73-.99,1-2.63-.05-.11-.1-.23-.14-.34-1.01-2.58-2.41-4.93-4.42-6.84-2-1.92-3.08-4.34-4.12-6.8-.86-2.06-1.54-4.23-3.25-5.8-1.84-1.68-3.87-3.14-6.51-2.99-1.11.06-2.27.44-3.29.92-2.19,1.02-4.34,2.17-5.83,4.45Zm-.73,44.13c.56.39.91.72,1.31.9,2.45,1.09,4.88,2.2,7.37,3.18,1.58.62,3.22,1.24,4.88,1.43,3,.34,5.97.93,9.05.53,2.17-.29,4.29-.59,6.38-1.25,2.03-.64,2.21-1.84,1.81-3.45-.73-2.96-2.37-5.39-4.78-7.27-1.81-1.42-3.71-2.72-5.47-4.19-1.21-1.01-2.24-2.25-3.39-3.34-1.4-1.32-2.85-2.58-4.71-2.97-.46.64-.75,1.32-1.26,1.69-.69.49-1.57.71-2.34,1.09-.23.11-.57.35-.58.54-.06,1.59-.81,2.71-2.23,3.37-.69.32-1.43.54-2.18.81-.31,2.19-.33,2.17-2,4.02-.31.35-.39.93-.51,1.42-.3,1.18.22,2.61-1.37,3.5Zm-7.62-8.96c-.84,0-1.42-.04-2,0-2,.16-3.99.49-5.99.51-3.92.03-7.85.03-11.76-.21-2.55-.16-5.11-.63-7.6-1.21-3.13-.73-6.02-2.14-8.77-3.82-1.47-.9-2.9-1.91-4.46-2.63-1.31-.6-2.77-.88-4.18-1.25-4.34-1.14-7.95-3.33-10.43-7.15-1.09-1.68-.98-4.46.12-5.8,1.33-1.63,2.83-3.03,4.72-4,.5-.26.9-.72,1.35-1.09-.06-.12-.12-.24-.18-.35-.47.08-.95.1-1.39.25-1.23.42-2.48.81-3.67,1.35-2.43,1.11-4.71,2.47-6.09,4.87-.43.75-.77,1.66-.81,2.51-.13,2.8,1.33,4.97,3.12,6.92,3.36,3.66,7.58,6.01,12.18,7.73,2.68,1.01,5.28,2.19,7.76,3.64,4.17,2.43,8.38,4.71,13.23,5.64,7.11,1.36,13.99,1.3,20.5-2.33,1.59-.88,3-1.97,4.34-3.58Zm67.04-.94c-.67,1.29-1.12,2.43-1.81,3.41-.67.94-1.43,1.97-2.41,2.51-1.95,1.07-4.24,1-6.39,1.35-1.37.22-2.77.28-4.12.56-3.16.66-5.25,2.36-5.59,5.81-.12,1.18-.85,2.12-1.89,2.76-3.7,2.26-8.01,2.49-12.18,2.86-1.33.12-2.66.03-3.99-.07-.2-.01-.38.08-.81.2.44.25.66.42.91.5,1.42.45,2.83.99,4.29,1.28,3.5.69,7.04,1.39,10.62.83,2.26-.36,4.52-.84,6.69-1.54,1.85-.6,2.83-2.13,2.98-4.11.14-1.73.47-3.42,1.96-4.51.96-.7,2.04-1.33,3.15-1.73,1.95-.7,4.03-1.08,5.96-1.82,3.62-1.4,4.59-3.95,3.3-7.47-.1-.28-.39-.48-.67-.83ZM50.54,36.65c0-2.65.01-5.13-.02-7.6,0-.38-.12-.83-.35-1.13-.87-1.15-4.08-1.88-5.46-1.48-1.92.55-3.24,3.92-1.6,5.9,1.88,2.28,4.33,3.47,7.43,4.32Zm60.76.46c1.02-.45,1.94-.74,2.75-1.23,1.32-.8,2.7-1.54,3.53-2.96.82-1.41.81-4.08-.92-4.94-2.01-1.01-4.09-.88-6.19-.5-.16.03-.39.45-.36.66.25,1.71.58,3.4.82,5.11.17,1.22.23,2.45.36,3.86Zm-.53,3.84c-.08.35-.13.46-.13.57.04,1.8.06,3.61.15,5.41.01.25.38.57.66.7.9.42,1.83.76,2.75,1.15.34.14.65.35.97.52.07-.07.14-.14.21-.22-1.34-2.73-2.27-5.68-4.61-8.13Z"/>
      <path class="cls-1" d="m108.58,28.91c.14,4.53.28,9.07.41,13.6.04,1.31.06,2.61.08,3.92,0,.68-.27,1.04-1.02,1.18-4.11.78-7.74,2.53-10.63,5.62-.62.66-1.31.97-2.22.95-3.59-.07-6.6,1.59-9.57,3.31-1.7.98-3.41,1.94-5.05,3-1.26.81-2.58.61-3.85.33-2.64-.58-5.35-1.04-7.83-2.04-3.91-1.58-7.98-2.87-11.53-5.25-2.08-1.39-3.71-3.13-4.38-5.61-.1-.38-.17-.78-.16-1.17.06-5.16.14-10.32.18-15.48.01-1.42-.1-2.85-.2-4.26-.04-.56.16-.84.64-1.09,2.55-1.36,5.09-2.72,7.61-4.13,1.57-.88,3.03-1.98,4.65-2.75,2.01-.96,4.09-1.83,6.21-2.48,3.07-.94,6.26-1.36,9.49-1.29,5.83.13,11.31,1.47,16.32,4.59,3.22,2.01,6.51,3.91,9.79,5.82.76.44,1.19.92,1.06,1.83-.06.46-.01.93-.01,1.4,0,0,.01,0,.02,0Zm-27.94,6.23c-.57.14-1.23.14-1.69.44-1.92,1.26-3.11,3.01-3.19,5.38-.05,1.42.36,1.71,1.64,1.16.6-.26,1.05-.23,1.43.36.38.6.83,1.15,1.24,1.74.52.76.97.76,1.49,0,.33-.49.65-.98.97-1.48.5-.77,1.08-.97,1.95-.47.76.44,1.32.07,1.23-.79-.1-.96-.33-1.92-.6-2.86-.49-1.73-2.79-3.45-4.48-3.46Zm.3,17.27c.74-.39,1.59-.75,2.32-1.27.2-.14.23-.92.04-1.15-.68-.8-1.46-1.52-2.26-2.21-.14-.12-.62-.07-.79.08-.7.62-1.37,1.27-1.97,1.97-.17.2-.24.68-.12.92.53,1.05,1.6,1.25,2.78,1.66Zm10.13-19.62c.13.51.15,1.09.41,1.51.29.46.81,1.07,1.22,1.07.59,0,1.32-.39,1.72-.84.74-.83.63-2.81-.05-3.7-.38-.5-.87-1.06-1.54-.77-.54.24-1.05.71-1.38,1.2-.27.41-.27,1-.39,1.54Zm-20.75.14c-.14-.55-.14-1.3-.51-1.76-.42-.53-1.12-.96-1.78-1.12-.33-.08-1.01.48-1.22.9-.64,1.33-.46,2.64.5,3.79.87,1.04,2.08.89,2.66-.36.19-.41.22-.89.35-1.46Z"/>
      <path class="cls-1" d="m50.17,45.39c.18.39.35.61.37.83.33,3.18,1.7,5.78,4.14,7.87,2.51,2.14,5.46,3.46,8.45,4.7,2.14.88,3.31,2.71,4.64,4.41.73.93,1.53,1.81,2.24,2.64-3.33,2.17-6.78,4.42-10.23,6.67.07.13.13.25.2.38.58-.25,1.18-.49,1.75-.76,2.62-1.23,5.23-2.47,7.84-3.71,4.31-2.04,8.66-4.02,12.92-6.16,1.43-.72,2.73-1.75,3.94-2.8,3.12-2.71,6.63-4.4,10.81-4,4.32.41,7.89,2.27,9.95,6.3.71,1.41.79,2.81-.59,4.06-1.4,1.27-2.16,3.02-2.51,4.82-.7,3.56-2.66,6.21-5.35,8.5-3.6,3.07-7.89,4.27-12.45,4.71-5.49.53-10.95.11-16.37-.82-4.34-.75-8.59-1.84-12.58-3.74-1.23-.59-2.25-1.63-3.39-2.41-.88-.6-1.81-1.12-2.72-1.67-2.1-1.26-4.21-2.51-6.31-3.77-.79-.47-1.03-1.25-.94-2.1.25-2.28.49-4.56.84-6.82.78-4.9,2.44-9.57,3.98-14.27.3-.9.82-1.73,1.37-2.85Z"/>
      <path class="cls-1" d="m134.26,62.97c2.79-.08,3.39-2.08,3.94-4.05.18-.65.46-.92,1.02-.58,1.4.85,2.79.8,4.25.05.22.75.46,1.41.61,2.08.6,2.73,2.08,5.02,3.5,7.36,1.37,2.25,2.87,4.44,4.06,6.78,1.15,2.25,1.13,4.74.63,7.19-.44,2.18-1.19,4.3-1.12,6.58.04,1.12-1.17,2.01-2.65,2.39-3.06.79-6.18.6-9.27.51-1.26-.03-2.65-.02-3.73-1.06-1-.96-1.16-1.7-.59-2.98,1.39-3.14,2.54-6.37,2.58-9.85.01-.88-.47-1.84-.94-2.65-1.25-2.19-1.79-4.56-2-7.03-.14-1.54-.19-3.08-.29-4.75Z"/>
      <path class="cls-1" d="m99.69,54.49c1.49-2.28,3.63-3.43,5.83-4.45,1.02-.48,2.18-.86,3.29-.92,2.64-.14,4.67,1.31,6.51,2.99,1.71,1.56,2.39,3.74,3.25,5.8,1.04,2.47,2.11,4.89,4.12,6.8,2,1.91,3.41,4.26,4.42,6.84.05.12.09.23.14.34.72,1.64.74,1.91-1,2.63-2.06.84-4.21,1.58-6.38,2.01-5,1-10.04,1.79-15.06,2.64-.45.08-.93,0-1.4-.02.16-.47.22-1.01.49-1.39,1.61-2.25,2.41-4.81,3.07-7.45.37-1.49.97-2.93,1.52-4.37.94-2.47.59-4.74-.93-6.86-1.51-2.1-3.51-3.48-6.06-4.06-.57-.13-1.12-.33-1.79-.54Z"/>
      <path class="cls-1" d="m98.96,98.62c1.59-.89,1.07-2.32,1.37-3.5.12-.49.2-1.08.51-1.42,1.66-1.86,1.69-1.83,2-4.02.75-.28,1.49-.49,2.18-.81,1.42-.66,2.17-1.78,2.23-3.37,0-.19.34-.42.58-.54.78-.38,1.65-.6,2.34-1.09.51-.36.8-1.05,1.26-1.69,1.86.39,3.31,1.65,4.71,2.97,1.15,1.09,2.18,2.33,3.39,3.34,1.76,1.47,3.66,2.78,5.47,4.19,2.41,1.88,4.05,4.32,4.78,7.27.4,1.62.21,2.81-1.81,3.45-2.09.66-4.22.96-6.38,1.25-3.08.41-6.06-.18-9.05-.53-1.66-.19-3.3-.82-4.88-1.43-2.49-.97-4.93-2.09-7.37-3.18-.41-.18-.75-.51-1.31-.9Z"/>
      <path class="cls-1" d="m91.33,89.67c-1.35,1.61-2.76,2.7-4.34,3.58-6.51,3.63-13.39,3.69-20.5,2.33-4.85-.93-9.06-3.21-13.23-5.64-2.48-1.45-5.07-2.63-7.76-3.64-4.6-1.73-8.82-4.08-12.18-7.73-1.79-1.95-3.25-4.13-3.12-6.92.04-.85.38-1.76.81-2.51,1.38-2.4,3.66-3.76,6.09-4.87,1.18-.54,2.43-.93,3.67-1.35.44-.15.93-.17,1.39-.25.06.12.12.24.18.35-.45.37-.84.83-1.35,1.09-1.89.97-3.39,2.38-4.72,4-1.1,1.35-1.21,4.12-.12,5.8,2.48,3.82,6.09,6.02,10.43,7.15,1.41.37,2.87.65,4.18,1.25,1.56.72,2.99,1.72,4.46,2.63,2.74,1.69,5.63,3.09,8.77,3.82,2.49.58,5.05,1.05,7.6,1.21,3.91.24,7.84.25,11.76.21,2-.02,3.99-.35,5.99-.51.58-.05,1.16,0,2,0Z"/>
      <path class="cls-1" d="m158.38,88.73c.29.34.57.55.67.83,1.29,3.52.32,6.08-3.3,7.47-1.93.75-4.01,1.12-5.96,1.82-1.12.4-2.19,1.03-3.15,1.73-1.49,1.09-1.83,2.78-1.96,4.51-.15,1.98-1.13,3.51-2.98,4.11-2.17.7-4.44,1.18-6.69,1.54-3.58.56-7.12-.14-10.62-.83-1.46-.29-2.86-.83-4.29-1.28-.25-.08-.47-.26-.91-.5.4-.11.57-.2.76-.2,2.27-.06,4.56.04,6.82-.18,3.27-.32,6.52-.85,9.41-2.61,1.05-.64,1.78-1.59,1.89-2.76.34-3.45,2.43-5.15,5.59-5.81,1.35-.28,2.75-.34,4.12-.56,2.16-.35,4.45-.28,6.39-1.35.97-.54,1.74-1.56,2.41-2.51.69-.98,1.14-2.13,1.81-3.41Z"/>
      <path class="cls-1" d="m50.54,36.65c-3.1-.85-5.55-2.04-7.43-4.32-1.64-1.98-.32-5.35,1.6-5.9,1.39-.4,4.6.33,5.46,1.48.23.3.34.75.35,1.13.03,2.47.02,4.95.02,7.6Z"/>
      <path class="cls-1" d="m111.3,37.1c-.13-1.41-.19-2.64-.36-3.86-.24-1.71-.58-3.4-.82-5.11-.03-.21.2-.63.36-.66,2.1-.38,4.18-.51,6.19.5,1.73.86,1.73,3.54.92,4.94-.83,1.42-2.21,2.16-3.53,2.96-.81.49-1.74.79-2.75,1.23Z"/>
      <path class="cls-1" d="m110.78,40.94c2.34,2.45,3.27,5.41,4.61,8.13-.07.07-.14.14-.21.22-.32-.18-.63-.38-.97-.52-.91-.39-1.85-.73-2.75-1.15-.28-.13-.65-.45-.66-.7-.1-1.8-.12-3.6-.15-5.41,0-.11.05-.22.13-.57Z"/>
      <path class="cls-2" d="m80.63,35.14c1.69.02,3.99,1.73,4.48,3.46.26.94.49,1.89.6,2.86.09.87-.47,1.23-1.23.79-.87-.5-1.45-.3-1.95.47-.32.49-.64.99-.97,1.48-.52.77-.97.76-1.49,0-.4-.59-.85-1.14-1.24-1.74-.38-.59-.83-.62-1.43-.36-1.29.55-1.69.27-1.64-1.16.08-2.37,1.27-4.12,3.19-5.38.46-.3,1.12-.3,1.69-.44Z"/>
      <path class="cls-2" d="m80.93,52.42c-1.18-.41-2.26-.61-2.78-1.66-.12-.23-.05-.71.12-.92.61-.7,1.28-1.36,1.97-1.97.17-.15.65-.2.79-.08.8.69,1.58,1.41,2.26,2.21.19.23.16,1.01-.04,1.15-.74.52-1.59.89-2.32,1.27Z"/>
      <path class="cls-2" d="m91.06,32.8c.12-.54.12-1.13.39-1.54.33-.49.84-.96,1.38-1.2.67-.29,1.16.26,1.54.77.68.89.79,2.87.05,3.7-.41.46-1.14.83-1.72.84-.41,0-.93-.61-1.22-1.07-.26-.42-.28-.99-.41-1.51Z"/>
      <path class="cls-2" d="m70.31,32.94c-.13.57-.16,1.05-.35,1.46-.57,1.25-1.79,1.41-2.66.36-.96-1.15-1.14-2.47-.5-3.79.2-.42.88-.97,1.22-.9.66.15,1.36.59,1.78,1.12.36.46.36,1.21.51,1.76Z"/>
    </g>
  </g>
</svg>