<?xml version="1.0" encoding="UTF-8"?>
<svg id="Layer_2" data-name="Layer 2" xmlns="http://www.w3.org/2000/svg" viewBox="0 0 191.3 191.32">
  <defs>
    <style>
      .cls-1 {
        fill: #01010f;
      }

      .cls-2 {
        fill: white;
      }
    </style>
  </defs>
  <g id="Layer_1-2" data-name="Layer 1">
    <g>
      <path class="cls-1" d="m95.57,191.32C42.09,191.27-1.6,147.22.04,92.6,1.58,41.61,42.94-.86,97.57.01c51.54.83,93.65,42.04,93.73,95.92.08,52.87-42.7,95.26-95.73,95.38Zm-47.58-124.6c-.12,0-.24,0-.36,0,0,3.3-.09,6.6.03,9.89.08,2.13.86,4.06,2.5,5.55,2.44,2.23,5.17,3.97,8.3,5.08,1.55.55,3.11,1.12,4.58,1.85,4.06,2.02,8.3,3.33,12.83,3.64.91.06,1.98.27,2.71-.1,2.38-1.21,4.64-2.65,6.95-4,3.45-2.02,7.05-3.54,11.15-3.56.46,0,.99-.31,1.36-.63,1.04-.88,1.95-1.93,3.03-2.76,2.7-2.09,5.81-3.32,9.14-4.04,1.83-.39,1.84-.49,1.78-2.37-.21-7.09-.41-14.19-.59-21.28-.02-.63-.23-1-.78-1.34-3.71-2.21-7.43-4.42-11.08-6.73-3.4-2.14-7.05-3.7-10.95-4.59-4.27-.97-8.57-1.29-12.97-.75-5.5.68-10.57,2.36-15.29,5.28-3.59,2.23-7.28,4.32-11.01,6.31-1.28.68-1.9,1.21-1.75,2.87.34,3.87.31,7.77.43,11.65Zm8.07,39.76c-.04-.07-.08-.13-.12-.2,3.61-3.02,7.44-5.72,11.65-7.8-.05-.19-.05-.26-.09-.3-.06-.07-.12-.17-.2-.19-1.42-.4-2-1.59-2.58-2.77-.14-.28-.27-.57-.46-.81-1.85-2.22-3.95-4.02-6.79-5.01-3.44-1.19-6.51-3.13-9.04-5.8-2.27-2.4-3.56-5.22-3.25-8.62.02-.27,0-.54,0-.81-.12-.02-.23-.04-.35-.05-.63,1.61-1.31,3.2-1.88,4.83-.91,2.6-1.82,5.21-2.62,7.85-1.35,4.47-2.2,9.06-2.75,13.69-.24,2.03-.21,3.98,1.88,5.14,2.58,1.44,5.2,2.81,7.78,4.24.64.36,1.22.83,1.81,1.27,1.07.79,2.05,1.74,3.21,2.36,3.66,1.99,7.62,3.2,11.68,4.07,7.12,1.52,14.3,2.24,21.6,1.61,5.47-.47,10.51-1.89,14.73-5.59,2.4-2.1,4.53-4.36,5.32-7.59.76-3.08,1.83-5.99,4.13-8.34.83-.85.91-2.03.44-3.24-1.75-4.56-5.54-6.68-9.88-7.72-4.18-1.01-8.25-.1-11.82,2.42-1.9,1.35-3.71,2.83-5.56,4.25-2.91,2.23-6.42,3.27-9.66,4.84-4.11,1.99-8.3,3.83-12.43,5.78-1.62.76-3.18,1.64-4.77,2.46Zm48.75,7.44c.58,0,.87.03,1.16,0,3.75-.52,7.51-1.01,11.25-1.6,1.99-.31,3.95-.85,5.94-1.18,3.41-.56,6.64-1.56,9.63-3.33.57-.34.7-.64.47-1.27-1.03-2.76-2.37-5.35-4.21-7.65-.99-1.23-2.11-2.37-3.16-3.55-1.81-2.04-2.55-4.62-3.44-7.09-1.23-3.38-3.1-6.12-6.34-7.85-2.28-1.22-4.6-1.83-7.04-.69-1.82.85-3.59,1.83-5.31,2.88-.78.47-1.43,1.19-2.03,1.9-.67.8-.51,1.16.53,1.35,2.03.36,3.84,1.18,5.52,2.36,3.24,2.28,5.48,6.84,3.17,11.61-.89,1.83-1.48,3.83-1.96,5.81-.52,2.12-1.31,4.07-2.56,5.85-.5.72-.98,1.47-1.62,2.44Zm46.67-24.17c-1.9.83-3.75,1.27-5.55-.1-.52,1.09-.96,2.12-1.5,3.09-.62,1.11-1.43,2.06-2.77,2.31-.62.11-.83.42-.78,1.03.16,2.05.2,4.1.46,6.14.34,2.67,1.2,5.17,2.67,7.48.48.74.7,1.85.58,2.73-.5,3.67-1.42,7.28-3.03,10.61-.82,1.7-.29,2.76,1.24,3.79.45.3,1.03.45,1.57.56,2.99.59,6.01.48,9.02.25,1.96-.15,3.92-.4,5.57-1.62.39-.29.74-.83.84-1.31.52-2.39.92-4.81,1.43-7.2.69-3.24.84-6.43-.84-9.43-1.48-2.65-2.99-5.3-4.63-7.85-2.04-3.19-3.88-6.43-4.29-10.47Zm-51.07,46.77c.92.38,1.72.7,2.51,1.03,3.26,1.38,6.51,2.79,9.78,4.15.77.32,1.59.57,2.41.66,2.41.27,4.82.53,7.24.66,3.87.21,7.72.17,11.38-1.41,1.97-.85,2.62-2.17,1.89-4.2-.41-1.14-.99-2.21-1.43-3.34-.81-2.04-2.24-3.61-4-4.8-3.39-2.3-6.48-4.88-9.31-7.86-1.52-1.6-3.49-2.77-5.29-4.09-.42-.31-1.04-.52-1.3.23-.61,1.71-1.99,2.42-3.61,2.72-.68.13-.84.45-.91,1.05-.06.54-.19,1.09-.41,1.59-.7,1.65-2.24,2.12-3.77,2.62-.29.1-.71.52-.69.75.17,1.75-.86,2.82-2.08,3.73-.66.5-.89,1.02-.83,1.81.13,1.7-.24,3.26-1.59,4.7Zm-8.76-10.63c-.05-.08-.09-.16-.14-.24-1.1.09-2.19.19-3.29.28-7.21.59-14.42.9-21.63,0-5.65-.71-10.97-2.38-15.89-5.32-2.21-1.32-4.52-2.52-6.88-3.54-2.59-1.12-5.35-1.84-7.92-2.99-3.15-1.4-5.86-3.46-7.48-6.61-1.17-2.26-1.23-4.5.45-6.65,1.39-1.78,3.15-3.07,5.06-4.21.4-.24.82-.46,1.16-.77.17-.15.17-.49.25-.74-.25-.05-.53-.21-.76-.15-3.2.86-6.3,1.96-8.99,3.95-2.34,1.73-3.95,3.93-3.78,7,.12,2.17.98,4.12,2.34,5.79,3.98,4.91,9.32,7.83,15.01,10.28,3.7,1.6,7.31,3.44,10.93,5.22,2.59,1.27,5.05,2.89,7.74,3.89,5.72,2.13,11.66,2.89,17.79,2.35,5.44-.48,10.17-2.5,14.37-5.89.61-.49,1.11-1.1,1.67-1.66Zm31.5,20.91c-.02.1-.05.2-.07.31,1.5.53,2.97,1.18,4.51,1.55,2.23.54,4.5.97,6.77,1.27,4.42.59,8.83.45,13.11-.89,2.91-.91,5.09-2.66,5.29-6.02.2-3.39,2.1-5.41,5.19-6.43,2.09-.69,4.23-1.24,6.34-1.89,3.46-1.07,6.74-3.83,4.82-8.83-.16-.41-.31-.82-.47-1.23-.09,0-.18,0-.27,0-.31.76-.58,1.54-.92,2.29-.95,2.08-2.12,4.01-4.39,4.84-1.24.45-2.58.68-3.9.9-2.82.47-5.67.74-8.46,1.34-2.86.61-4.9,2.22-5.27,5.39-.2,1.7-1.01,3.15-2.41,4.05-1.34.86-2.83,1.62-4.36,2.02-4.17,1.1-8.44,1.48-12.76,1.37-.92-.02-1.84,0-2.76,0ZM44.82,64.79c0-3.24.01-6.47-.02-9.69,0-.23-.3-.56-.53-.66-1.1-.49-2.21-.98-3.36-1.35-1.59-.52-3.32.09-4.32,1.42-1.1,1.47-1.3,3.43-.45,4.8,1.94,3.11,5.09,4.41,8.35,5.56.05.02.12-.02.34-.07Zm69.67.7c.93-.42,1.74-.72,2.49-1.14,2.01-1.13,3.96-2.34,4.95-4.61.75-1.69.4-3.2-.9-4.49-1.39-1.37-5.86-1.67-7.28-.81-.26.16-.44.71-.4,1.05.17,1.54.47,3.07.64,4.61.2,1.72.32,3.44.5,5.38Zm-.3,4.51c-.13.05-.25.09-.38.14,0,2.31-.01,4.62.03,6.93,0,.19.35.51.58.55,1.72.33,3.25.99,4.53,2.22.11.1.3.12.45.18.07-.06.14-.12.21-.18-1.39-3.51-3.14-6.82-5.41-9.83Z"/>
      <path class="cls-2" d="m47.99,66.72c-.12-3.89-.09-7.78-.43-11.65-.14-1.66.48-2.18,1.75-2.87,3.73-2,7.41-4.09,11.01-6.31,4.72-2.92,9.79-4.6,15.29-5.28,4.4-.54,8.7-.22,12.97.75,3.91.88,7.55,2.44,10.95,4.59,3.66,2.3,7.37,4.51,11.08,6.73.56.33.77.71.78,1.34.18,7.1.39,14.19.59,21.28.05,1.87.05,1.97-1.78,2.37-3.33.72-6.43,1.94-9.14,4.04-1.08.83-1.99,1.88-3.03,2.76-.37.32-.9.62-1.36.63-4.1.02-7.7,1.54-11.15,3.56-2.31,1.35-4.57,2.8-6.95,4-.73.37-1.8.16-2.71.1-4.53-.31-8.77-1.63-12.83-3.64-1.47-.73-3.03-1.3-4.58-1.85-3.13-1.11-5.86-2.85-8.3-5.08-1.64-1.49-2.42-3.42-2.5-5.55-.12-3.29-.03-6.6-.03-9.89.12,0,.24,0,.36,0Zm25.79,2.93c.02.31-.04.65.07.92.15.38.36.82.68,1.02.14.09.67-.28.92-.54.55-.57,1.05-.64,1.56.01.71.9,1.34,1.86,1.96,2.83.39.62.65.86,1.16.08.64-.99,1.37-1.92,2.12-2.83.38-.46.85-.57,1.35-.05.26.27.66.42.99.62.2-.36.48-.69.6-1.08.51-1.66-1.05-5.25-3.1-6.48-1.34-.81-2.82-1.28-4.26-.52-2.38,1.25-3.59,3.41-4.06,6.02Zm5.84,13.38c.99-.5,1.92-.94,2.81-1.45.71-.4.6-.93.09-1.44-.84-.83-1.66-1.67-2.54-2.46-.16-.14-.66-.16-.82-.02-.88.78-1.7,1.62-2.54,2.45-.5.5-.48,1.08.08,1.43.87.54,1.84.94,2.92,1.48Zm16.3-22.89c-.34-.75-.59-1.54-1.03-2.21-.57-.86-1.86-.91-2.52-.11-1.05,1.27-1.5,3.48-.16,5.08.84,1.01,2.1.96,2.76-.2.42-.73.6-1.6.94-2.56Zm-32.78.1c.35.79.63,1.71,1.13,2.5.63.98,1.92.83,2.65-.04,1-1.2.7-2.48.35-3.71-.25-.89-1.02-1.47-1.98-1.66-.75-.15-1.21.33-1.5.88-.29.56-.4,1.22-.66,2.04Z"/>
      <path class="cls-2" d="m56.06,106.48c1.59-.82,3.15-1.7,4.77-2.46,4.14-1.95,8.32-3.79,12.43-5.78,3.24-1.57,6.75-2.61,9.66-4.84,1.85-1.42,3.66-2.9,5.56-4.25,3.57-2.53,7.63-3.43,11.82-2.42,4.34,1.04,8.12,3.16,9.88,7.72.47,1.21.39,2.39-.44,3.24-2.3,2.35-3.37,5.26-4.13,8.34-.8,3.23-2.93,5.49-5.32,7.59-4.22,3.69-9.26,5.11-14.73,5.59-7.3.63-14.48-.1-21.6-1.61-4.06-.86-8.02-2.08-11.68-4.07-1.16-.63-2.14-1.57-3.21-2.36-.59-.44-1.17-.91-1.81-1.27-2.58-1.43-5.2-2.81-7.78-4.24-2.08-1.16-2.12-3.11-1.88-5.14.55-4.64,1.39-9.22,2.75-13.69.8-2.64,1.7-5.25,2.62-7.85.57-1.63,1.25-3.22,1.88-4.83.12.02.23.04.35.05,0,.27.02.54,0,.81-.31,3.4.98,6.22,3.25,8.62,2.52,2.67,5.6,4.6,9.04,5.8,2.84.98,4.94,2.79,6.79,5.01.2.23.33.53.46.81.58,1.19,1.16,2.37,2.58,2.77.08.02.15.12.2.19.03.04.03.11.09.3-4.21,2.08-8.05,4.77-11.65,7.8.04.07.08.13.12.2Z"/>
      <path class="cls-2" d="m104.81,113.91c.64-.96,1.11-1.71,1.62-2.44,1.24-1.78,2.04-3.73,2.56-5.85.48-1.98,1.08-3.98,1.96-5.81,2.31-4.77.07-9.33-3.17-11.61-1.68-1.18-3.49-2-5.52-2.36-1.04-.18-1.21-.55-.53-1.35.59-.71,1.25-1.43,2.03-1.9,1.72-1.05,3.49-2.02,5.31-2.88,2.44-1.15,4.76-.53,7.04.69,3.25,1.73,5.11,4.47,6.34,7.85.9,2.47,1.64,5.05,3.44,7.09,1.05,1.19,2.17,2.32,3.16,3.55,1.85,2.3,3.18,4.89,4.21,7.65.24.63.1.93-.47,1.27-2.99,1.77-6.22,2.77-9.63,3.33-1.99.33-3.95.87-5.94,1.18-3.74.58-7.5,1.08-11.25,1.6-.29.04-.58,0-1.16,0Z"/>
      <path class="cls-2" d="m151.48,89.74c.41,4.03,2.25,7.28,4.29,10.47,1.64,2.56,3.15,5.2,4.63,7.85,1.68,3,1.53,6.19.84,9.43-.51,2.39-.91,4.81-1.43,7.2-.1.48-.45,1.02-.84,1.31-1.64,1.21-3.6,1.47-5.57,1.62-3.01.23-6.03.34-9.02-.25-.54-.11-1.12-.26-1.57-.56-1.54-1.03-2.07-2.09-1.24-3.79,1.61-3.33,2.53-6.94,3.03-10.61.12-.88-.11-1.99-.58-2.73-1.48-2.31-2.33-4.81-2.67-7.48-.26-2.03-.3-4.09-.46-6.14-.05-.61.16-.92.78-1.03,1.34-.25,2.15-1.2,2.77-2.31.54-.97.98-2,1.5-3.09,1.8,1.37,3.64.93,5.55.1Z"/>
      <path class="cls-2" d="m100.41,136.51c1.35-1.44,1.72-3,1.59-4.7-.06-.79.17-1.31.83-1.81,1.21-.91,2.25-1.98,2.08-3.73-.02-.23.39-.66.69-.75,1.53-.5,3.06-.97,3.77-2.62.21-.5.34-1.05.41-1.59.07-.59.23-.92.91-1.05,1.62-.3,3-1.01,3.61-2.72.27-.74.89-.53,1.3-.23,1.8,1.32,3.77,2.49,5.29,4.09,2.82,2.98,5.92,5.56,9.31,7.86,1.75,1.19,3.18,2.76,4,4.8.45,1.12,1.02,2.2,1.43,3.34.73,2.02.07,3.35-1.89,4.2-3.66,1.58-7.51,1.62-11.38,1.41-2.42-.13-4.83-.38-7.24-.66-.82-.09-1.65-.34-2.41-.66-3.27-1.36-6.52-2.76-9.78-4.15-.79-.34-1.59-.65-2.51-1.03Z"/>
      <path class="cls-2" d="m91.65,125.88c-.55.56-1.06,1.17-1.67,1.66-4.2,3.39-8.93,5.41-14.37,5.89-6.13.54-12.08-.22-17.79-2.35-2.69-1-5.15-2.61-7.74-3.89-3.62-1.78-7.23-3.62-10.93-5.22-5.69-2.46-11.03-5.37-15.01-10.28-1.36-1.68-2.22-3.62-2.34-5.79-.17-3.07,1.43-5.27,3.78-7,2.69-1.98,5.8-3.08,8.99-3.95.22-.06.5.09.76.15-.08.25-.08.59-.25.74-.34.31-.76.53-1.16.77-1.9,1.14-3.67,2.43-5.06,4.21-1.68,2.15-1.61,4.39-.45,6.65,1.63,3.15,4.33,5.21,7.48,6.61,2.57,1.15,5.33,1.87,7.92,2.99,2.36,1.02,4.67,2.22,6.88,3.54,4.92,2.94,10.24,4.61,15.89,5.32,7.21.9,14.42.59,21.63,0,1.1-.09,2.19-.19,3.29-.28.05.08.09.16.14.24Z"/>
      <path class="cls-2" d="m123.15,146.79c.92,0,1.84-.02,2.76,0,4.31.11,8.59-.27,12.76-1.37,1.53-.4,3.02-1.16,4.36-2.02,1.4-.9,2.21-2.34,2.41-4.05.37-3.16,2.42-4.78,5.27-5.39,2.79-.6,5.64-.87,8.46-1.34,1.31-.22,2.65-.45,3.9-.9,2.27-.82,3.44-2.76,4.39-4.84.34-.75.62-1.52.92-2.29.09,0,.18,0,.27,0,.16.41.31.82.47,1.23,1.92,5-1.36,7.76-4.82,8.83-2.11.65-4.25,1.21-6.34,1.89-3.09,1.02-4.98,3.04-5.19,6.43-.2,3.36-2.38,5.11-5.29,6.02-4.28,1.34-8.69,1.48-13.11.89-2.27-.3-4.54-.73-6.77-1.27-1.54-.37-3.01-1.03-4.51-1.55.02-.1.05-.2.07-.31Z"/>
      <path class="cls-2" d="m44.82,64.79c-.23.05-.29.09-.34.07-3.25-1.14-6.41-2.44-8.35-5.56-.85-1.37-.66-3.33.45-4.8,1-1.33,2.74-1.94,4.32-1.42,1.14.38,2.26.86,3.36,1.35.24.11.53.43.53.66.03,3.22.02,6.45.02,9.69Z"/>
      <path class="cls-2" d="m114.49,65.49c-.18-1.93-.3-3.66-.5-5.38-.18-1.54-.48-3.07-.64-4.61-.04-.34.14-.89.4-1.05,1.42-.86,5.89-.57,7.28.81,1.3,1.28,1.65,2.79.9,4.49-1,2.26-2.94,3.47-4.95,4.61-.75.42-1.56.72-2.49,1.14Z"/>
      <path class="cls-2" d="m114.19,70c2.28,3.01,4.03,6.32,5.41,9.83-.07.06-.14.12-.21.18-.15-.06-.34-.08-.45-.18-1.27-1.22-2.81-1.89-4.53-2.22-.23-.04-.57-.36-.58-.55-.04-2.31-.03-4.62-.03-6.93.13-.05.25-.09.38-.14Z"/>
      <path class="cls-1" d="m73.78,69.65c.47-2.61,1.68-4.76,4.06-6.02,1.44-.76,2.91-.29,4.26.52,2.06,1.23,3.61,4.83,3.1,6.48-.12.38-.4.72-.6,1.08-.33-.2-.73-.35-.99-.62-.51-.53-.98-.41-1.35.05-.75.91-1.48,1.85-2.12,2.83-.51.78-.77.54-1.16-.08-.61-.97-1.25-1.93-1.96-2.83-.51-.65-1.01-.58-1.56-.01-.25.26-.78.63-.92.54-.32-.2-.52-.64-.68-1.02-.11-.27-.05-.61-.07-.92Z"/>
      <path class="cls-1" d="m79.62,83.02c-1.08-.54-2.04-.93-2.92-1.48-.56-.35-.58-.93-.08-1.43.83-.83,1.66-1.67,2.54-2.45.16-.14.66-.12.82.02.88.78,1.7,1.63,2.54,2.46.52.51.62,1.04-.09,1.44-.89.5-1.82.94-2.81,1.45Z"/>
      <path class="cls-1" d="m95.92,60.13c-.34.96-.52,1.83-.94,2.56-.66,1.16-1.92,1.21-2.76.2-1.34-1.61-.89-3.81.16-5.08.66-.8,1.95-.75,2.52.11.44.67.69,1.46,1.03,2.21Z"/>
      <path class="cls-1" d="m63.14,60.23c.26-.82.37-1.48.66-2.04.29-.55.75-1.03,1.5-.88.96.2,1.73.77,1.98,1.66.35,1.23.65,2.51-.35,3.71-.73.87-2.02,1.02-2.65.04-.5-.78-.79-1.71-1.13-2.5Z"/>
    </g>
  </g>
</svg>