<?xml version="1.0" encoding="utf-8" ?>
<svg xmlns="http://www.w3.org/2000/svg" xmlns:xlink="http://www.w3.org/1999/xlink" width="512" height="512">
	<path fill="#131E2B" transform="scale(0.5 0.5)" d="M458.972 307C455.488 302.807 451.839 297.771 450.25 292.49C449.017 288.392 449.445 283.458 451.692 279.75C453.984 275.969 458.117 273.156 462.455 272.303C467.535 271.305 473.623 271.73 478.813 271.645C492.499 271.423 506.197 271.514 519.884 271.513C528.177 271.512 536.469 271.515 544.761 271.527C549.138 271.533 553.71 271.265 558.064 271.692C561.434 272.022 564.498 272.794 567.329 274.747C570.844 277.172 573.735 281.301 574.451 285.537C575.793 293.48 570.248 299.988 565.878 305.971C559.63 312.854 553.273 320.562 545.372 325.632C542.09 327.739 538.614 329.509 535.06 331.105C533.56 331.779 527.264 333.866 526.498 334.818C526.072 335.348 526.525 348.637 526.528 350.356C526.554 365.64 526.553 380.924 526.524 396.209C526.509 404.278 526.173 412.508 526.546 420.562C526.912 428.463 529.795 435.268 535.808 440.451C540.131 444.178 546.345 446.74 552.115 446.181C554.815 445.92 557.85 444.751 560.003 443.088C564.272 439.791 566.564 433.39 572.781 434.13C574.274 434.307 575.689 434.679 576.862 435.656C579.327 437.71 580.891 440.859 581.055 444.059C581.429 451.372 578.602 458.152 573.674 463.497C567.472 470.225 557.726 473.211 548.759 473.349C539.656 473.49 531.894 470.596 524.658 465.231C521.012 462.528 517.707 459.376 513.999 456.753C513.48 456.386 511.745 454.976 511.298 454.929C508.637 454.649 492.615 479.213 466.88 472.19C460.901 470.558 455.375 467.749 450.949 463.348C446.42 458.843 443.336 453.111 443.42 446.604C443.466 443.029 444.57 438.096 447.25 435.534C449.064 433.801 452.151 433.696 454.5 433.935C455.972 434.085 456.601 434.285 457.496 435.5C458.457 436.804 459.075 438.412 460.032 439.75C462.217 442.805 465.822 445.278 469.457 446.204C474.943 447.604 480.982 445.77 485.587 442.765C491.029 439.213 495.935 433.33 497.224 426.83C497.84 423.721 497.538 420.13 497.538 416.953C497.54 410.496 497.537 404.038 497.531 397.58C497.51 376.621 497.782 355.654 497.503 334.697C482.34 327.995 470.086 319.386 458.972 307Z"/>
	<path fill="#219EBC" transform="scale(0.5 0.5)" d="M131.123 598.063L317.94 598.043L321.882 600.395L302.474 618.219C291.603 629.094 283.314 641.873 276.072 655.367C259.083 687.021 249.439 721.609 245.845 757.281C244.308 772.538 244.396 787.667 244.381 802.978L186.324 773.728C162.609 759.89 138.264 745.564 116.767 728.431C108.951 722.203 101.931 715.379 94.9044 708.29C86.3579 699.668 78.0523 690.903 70.8836 681.076C52.9161 656.447 41.4409 627.574 33.7445 598.26L131.123 598.063Z"/>
	<path fill="#219EBC" transform="scale(0.5 0.5)" d="M706.527 598.237L887.423 598.016L985.939 597.965C983.733 613.697 979.875 627.79 973.996 642.562C958.351 681.88 927.283 715.093 893.023 739.155C883.009 746.189 872.248 752.318 861.774 758.643C853.11 763.876 844.585 769.35 835.701 774.206C816.539 784.679 796.381 793.86 776.33 802.477C775.724 797.841 776.015 792.978 776.008 788.307C775.995 779.327 776.125 770.374 775.28 761.422C772.047 727.152 763.317 692.717 747.989 661.858C742.57 650.95 736.574 640.325 728.865 630.844C724.105 624.992 718.922 619.415 713.421 614.25C709.357 610.434 704.977 606.943 701.142 602.891C701.004 601.657 701.051 600.933 701.431 599.75C702.899 598.706 704.787 598.551 706.527 598.237Z"/>
	<path fill="#219EBC" transform="scale(0.5 0.5)" d="M447.5 598.086C457.352 597.7 467.31 597.99 477.176 598.003C494.172 598.024 511.168 598.025 528.163 598.101C536.621 598.139 545.081 598.221 553.538 598.348C556.916 598.399 561.053 598.019 564.292 598.742C567.649 599.491 571.176 601.564 574.262 603.076C581.812 606.776 589.289 610.54 596.41 615.033C634.06 638.792 661.879 682.089 671.559 725.037C681.251 768.042 678.046 815.83 653.912 853.635C652.713 855.513 651.363 857.626 649.617 859.032C645.239 862.556 638.884 865.009 633.781 867.311C612.404 876.958 591.038 884.37 568.114 889.448C535.123 895.062 501.008 896.429 467.75 891.951C458.776 890.743 449.682 888.485 440.858 886.432C420.974 881.806 400.683 873.706 382 865.509C378.794 864.102 371.52 861.754 369.664 858.704C368.123 856.171 366.216 853.831 364.649 851.285C361.692 846.482 359.224 841.499 356.967 836.336C350.408 821.331 347.098 805.457 345.386 789.25C341.954 756.78 346.385 722.602 358.362 692.184C370.23 662.045 388.349 635.997 414.707 616.8C420.481 612.595 426.842 609.001 433.102 605.571C437.831 602.979 442.548 600.23 447.5 598.086Z"/>
	<path fill="#8ECAE6" transform="scale(0.5 0.5)" d="M131.123 598.063C131.794 567.145 133.647 536.579 138.522 506C145.34 463.232 157.935 421.159 176.207 381.895C192.392 347.113 212.421 315.066 240.271 288.383C274.674 255.421 314.141 230.742 358.548 213.664C374.212 207.64 390.307 202.316 406.734 198.805C427.773 194.308 449.048 192.542 470.476 191.179C490.542 189.902 510.419 189.067 530.55 189.501C542.535 189.76 554.377 190.7 566.315 191.64C576.608 192.449 586.857 193.052 597.059 194.788C667.591 206.787 737.399 241.847 786.887 293.756C794.964 302.228 802.281 311.563 809.284 320.928C846.813 371.111 871.318 432.068 881.641 493.727C884.077 508.277 885.124 523.004 886.471 537.681C886.989 543.327 886.972 549.007 887.89 554.613C888.595 558.916 888.1 563.432 888.035 567.782C887.931 574.603 888.106 581.433 887.943 588.25C887.865 591.494 887.394 594.786 887.423 598.016L706.527 598.237C709.332 592.141 711.631 584.622 713.435 578.12C719.653 555.719 722.558 532.637 723.075 509.434C723.34 497.526 723.524 485.605 722.37 473.731C719.713 446.396 710.867 420.328 697.365 396.495C675.924 358.647 639.53 328.981 598.62 314.529C592.258 312.281 585.824 310.337 579.25 308.806C574.795 307.769 570.297 307.193 565.878 305.971C570.248 299.988 575.793 293.48 574.451 285.537C573.735 281.301 570.844 277.172 567.329 274.747C564.498 272.794 561.434 272.022 558.064 271.692C553.71 271.265 549.138 271.533 544.761 271.527C536.469 271.515 528.177 271.512 519.884 271.513C506.197 271.514 492.499 271.423 478.813 271.645C473.623 271.73 467.535 271.305 462.455 272.303C458.117 273.156 453.984 275.969 451.692 279.75C449.445 283.458 449.017 288.392 450.25 292.49C451.839 297.771 455.488 302.807 458.972 307L458.534 307.107C451.764 308.669 444.958 308.878 438.144 310.76C396.571 322.243 357.657 347.915 334.333 384.521C315.775 413.647 305.45 446.169 302.547 480.5C301.656 491.042 301.803 501.852 302.004 512.431C302.384 532.507 304.348 552.946 308.823 572.54C310.932 581.771 313.951 589.521 317.94 598.043L131.123 598.063Z"/>
	<path fill="#131E2B" transform="scale(0.5 0.5)" d="M355.526 254.152C364.458 253.406 371.671 255.396 378.902 260.634C386.138 265.874 391.193 273.185 392.528 282.115C393.813 290.708 392.055 299.611 386.824 306.659C380.982 314.531 373.309 318.952 363.627 320.328C355.414 320.701 348.111 319.428 341.234 314.708C333.118 309.136 328.667 301.533 327.009 291.961C325.602 283.837 327.78 274.605 332.568 267.893C338.143 260.078 346.173 255.698 355.526 254.152Z"/>
	<path fill="#131E2B" transform="scale(0.5 0.5)" d="M664.325 254.198C671.211 253.625 678.46 255.665 684.108 259.613C691.464 264.755 697.858 272.633 699.337 281.704C700.688 289.987 698.697 299.315 693.751 306.127C687.646 314.535 679.596 318.926 669.423 320.543C660.359 320.639 652.406 318.183 645.251 312.518C637.712 306.549 633.694 298.089 632.693 288.596C631.909 281.17 634.754 272.624 639.465 266.894C646.016 258.925 654.202 255.203 664.325 254.198Z"/>
</svg>
